<?xml version="1.0" encoding="UTF-8"?>
<!DOCTYPE svg PUBLIC "-//W3C//DTD SVG 1.1//EN" "http://www.w3.org/Graphics/SVG/1.1/DTD/svg11.dtd">
<svg version="1.1" xmlns="http://www.w3.org/2000/svg" xmlns:xlink="http://www.w3.org/1999/xlink" x="0" y="0" width="32" height="32" viewBox="0, 0, 32, 32">
  <g id="Layer_1">
    <path d="M16.512,23.868 L8.703,15.555 L15.992,8.199 L12.717,8.199 L6.486,14.665 L6.486,8.199 L4,8.199 L4,23.868 L6.486,23.868 L6.486,16.495 L13.187,23.868 L16.512,23.868 z M22.659,24.188 C25.111,24.188 28,22.928 28,19.67 C28,17.184 26.069,15.74 23.684,14.917 C21.332,14.06 20.459,13.388 20.459,12.095 C20.459,10.852 21.551,9.962 22.945,9.962 C24.171,9.962 25.061,10.399 26.119,11.356 L27.731,9.693 C26.606,8.635 25.178,7.812 22.945,7.812 C20.274,7.812 17.889,9.576 17.889,12.112 C17.889,14.984 19.838,15.992 22.441,16.915 C24.036,17.486 25.346,18.225 25.346,19.754 C25.346,21.282 23.885,22.038 22.508,22.038 C20.997,22.038 19.737,21.467 18.612,20.073 L16.848,21.769 C18.242,23.331 20.056,24.188 22.659,24.188 z" fill="#342780" id="Shape"/>
  </g>
</svg>
