<?xml version="1.0" encoding="UTF-8"?>
<!DOCTYPE svg PUBLIC "-//W3C//DTD SVG 1.1//EN" "http://www.w3.org/Graphics/SVG/1.1/DTD/svg11.dtd">
<svg version="1.1" xmlns="http://www.w3.org/2000/svg" xmlns:xlink="http://www.w3.org/1999/xlink" x="0" y="0" width="32" height="32" viewBox="0, 0, 32, 32">
  <g id="Layer_1">
    <g display="none">
      <path d="M16.106,23.767 L8.862,16.056 L15.623,9.233 L12.585,9.233 L6.806,15.23 L6.806,9.233 L4.5,9.233 L4.5,23.767 L6.806,23.767 L6.806,16.928 L13.021,23.767 L16.106,23.767 z M23.546,24.094 C25.821,24.094 28.5,22.926 28.5,19.904 C28.5,17.598 26.709,16.259 24.496,15.495 C22.316,14.701 21.506,14.078 21.506,12.878 C21.506,11.725 22.518,10.9 23.811,10.9 C24.948,10.9 25.774,11.305 26.755,12.193 L28.251,10.65 C27.207,9.669 25.883,8.906 23.811,8.906 C21.334,8.906 19.122,10.541 19.122,12.894 C19.122,15.558 20.929,16.492 23.344,17.349 C24.824,17.879 26.039,18.564 26.039,19.982 C26.039,21.399 24.683,22.1 23.406,22.1 C22.004,22.1 20.836,21.571 19.792,20.278 L18.156,21.851 C19.449,23.3 21.132,24.094 23.546,24.094 z" fill="#9F93DF"/>
      <path d="M16.106,23.767 L8.862,16.056 L15.623,9.233 L12.585,9.233 L6.806,15.23 L6.806,9.233 L4.5,9.233 L4.5,23.767 L6.806,23.767 L6.806,16.928 L13.021,23.767 L16.106,23.767 z M23.546,24.094 C25.821,24.094 28.5,22.926 28.5,19.904 C28.5,17.598 26.709,16.259 24.496,15.495 C22.316,14.701 21.506,14.078 21.506,12.878 C21.506,11.725 22.518,10.9 23.811,10.9 C24.948,10.9 25.774,11.305 26.755,12.193 L28.251,10.65 C27.207,9.669 25.883,8.906 23.811,8.906 C21.334,8.906 19.122,10.541 19.122,12.894 C19.122,15.558 20.929,16.492 23.344,17.349 C24.824,17.879 26.039,18.564 26.039,19.982 C26.039,21.399 24.683,22.1 23.406,22.1 C22.004,22.1 20.836,21.571 19.792,20.278 L18.156,21.851 C19.449,23.3 21.132,24.094 23.546,24.094 z" fill-opacity="0" stroke="#9F93DF" stroke-width="1"/>
    </g>
    <text transform="matrix(1, 0, 0, 1, 16, 16)" display="none">
      <tspan x="-13.926" y="8" font-family="Ubuntu-Bold" font-size="22" fill="#9F93DF">KS</tspan>
    </text>
    <path d="M12.392,23.645 Q11.93,22.897 11.303,22.028 Q10.676,21.159 9.939,20.29 Q9.202,19.421 8.41,18.618 Q7.618,17.815 6.826,17.199 L6.826,23.645 L3.394,23.645 L3.394,8.399 L6.826,8.399 L6.826,14.163 Q8.168,12.755 9.521,11.226 Q10.874,9.697 12.04,8.399 L16.11,8.399 Q14.548,10.247 12.975,11.963 Q11.402,13.679 9.664,15.417 Q11.49,16.935 13.195,19.025 Q14.9,21.115 16.462,23.645 z M22.6,21.027 Q21.148,21.027 20.147,20.73 Q19.146,20.433 18.464,20.059 L17.496,22.787 Q17.804,22.963 18.255,23.161 Q18.706,23.359 19.333,23.535 Q19.96,23.711 20.774,23.832 Q21.588,23.953 22.6,23.953 Q25.614,23.953 27.11,22.776 Q28.606,21.599 28.606,19.465 Q28.606,18.365 28.32,17.595 Q28.034,16.825 27.451,16.253 Q26.868,15.681 25.988,15.252 Q25.108,14.823 23.92,14.383 Q23.348,14.185 22.875,13.998 Q22.402,13.811 22.039,13.58 Q21.676,13.349 21.478,13.063 Q21.28,12.777 21.28,12.359 Q21.28,11.655 21.819,11.314 Q22.358,10.973 23.59,10.973 Q24.69,10.973 25.471,11.226 Q26.252,11.479 26.89,11.809 L27.88,9.103 Q27.154,8.707 26.032,8.377 Q24.91,8.047 23.37,8.047 Q22.072,8.047 21.038,8.366 Q20.004,8.685 19.278,9.279 Q18.552,9.873 18.156,10.72 Q17.76,11.567 17.76,12.623 Q17.76,13.679 18.134,14.416 Q18.508,15.153 19.102,15.67 Q19.696,16.187 20.444,16.528 Q21.192,16.869 21.94,17.133 Q23.656,17.705 24.36,18.2 Q25.064,18.695 25.064,19.443 Q25.064,19.795 24.954,20.081 Q24.844,20.367 24.558,20.576 Q24.272,20.785 23.799,20.906 Q23.326,21.027 22.6,21.027 z" fill="#9F93DF"/>
  </g>
</svg>
